<svg version="1.0" width="512.000000pt" height="512.000000pt" viewBox="0 0 512.000000 512.000000" preserveAspectRatio="xMidYMid meet" xmlns="http://www.w3.org/2000/svg">
  <defs></defs>
  <g transform="translate(0.000000,512.000000) scale(0.100000,-0.100000)" fill="#187cfe" stroke="none">
    <path d="M 1846.755 4180.09 C 1540.755 4133.028 1370 4103.272 1139 3990 C 706.946 3778.139 369 3400 198 2955 C 108 2722 70 2514 70 2260 C 70 1883 206 1571 483 1312 C 503 1292 531 1269 544 1261 C 557 1252 596 1225 630 1201 C 801 1082 1040.701 993.848 1280 993 C 1384 992.631 1406 998.879 1505 1015 C 1778.614 1059.555 1966 1243 2083 1499 C 2122 1585 2141 1685 2142 1800 C 2143 1969 2112 2057 2007 2185 C 1891 2326 1676 2406 1506 2370 C 1352 2338 1225 2208 1198 2053 C 1183 1964 1195 1915 1241 1881 C 1276 1855 1351 1849 1389 1869 C 1417 1885 1450 1938 1450 1970 C 1450 1984 1459 2014 1470 2038 C 1485 2072 1499 2085 1535 2101 C 1576 2119 1587 2120 1638 2109 C 1709 2095 1733 2083 1792 2031 C 1964 1879 1879 1517 1635 1354 C 1475 1248 1294 1226 1080 1285 C 998 1308 847 1375 765 1425 C 712 1457 574 1584 544 1629 C 531 1649 508 1683 493 1705 C 437 1790 386 1899 363 1985 C 303 2208 330 2561 425 2810 C 444 2859 463 2906 469 2917 C 474 2927 492 2966 509 3004 C 560 3117 685 3293 798 3411 C 948 3568 1078.112 3671.141 1275 3760 C 1535.188 3877.428 1746.816 3921.575 2025 3932 C 2358.767 3944.508 2745 3864 2980 3765 C 3010 3752 3077 3725 3129 3704 C 3181 3684 3282 3635 3354 3596 C 3467 3534 3523 3499 3677 3392 C 3729 3356 3919 3193 3998 3116 C 4075 3041 4222 2872 4259 2816 C 4268 2802 4301 2756 4332 2712 C 4424 2585 4545 2365 4612 2205 C 4729 1925 4814 1543 4828 1237 C 4836 1055 4843 1035 4903 1006 C 4949 985 4988 986 5027 1010 C 5087 1046 5094 1075 5087 1250 C 5073 1586 4994 1969 4885 2230 C 4865 2277 4836 2347 4820 2385 C 4772 2505 4661 2699 4548 2866 C 4409 3072 4160 3345 3989 3482 C 3839 3601 3802 3629 3740 3670 C 3704 3694 3657 3725 3635 3740 C 3613 3755 3582 3774 3565 3782 C 3436 3849 3313 3914 3305 3919 C 3278 3939 2969 4051 2855 4083 C 2740 4116 2491 4166 2375 4180 C 2281 4191 1906.46 4189.273 1846.755 4180.09 Z"></path>
    <path fill="#1a79bf" d="M2833 2465 c-12 -8 -27 -32 -34 -53 -12 -37 -61 -153 -104 -247 -13
-27 -39 -90 -60 -140 -20 -49 -60 -144 -89 -210 -30 -66 -73 -168 -96 -227
-42 -103 -43 -107 -26 -132 16 -25 19 -26 129 -26 61 0 118 4 124 8 7 5 37 69
67 143 30 73 71 172 91 219 20 47 45 108 56 135 26 70 63 145 70 145 3 0 12
-12 19 -27 31 -66 118 -272 240 -568 34 -82 64 -156 67 -162 4 -10 -92 -13
-463 -13 -258 0 -474 -4 -481 -8 -16 -10 -93 -175 -93 -199 0 -11 9 -29 20
-41 l21 -22 669 0 c720 0 688 -2 705 50 8 26 -1 50 -147 390 -25 58 -49 115
-53 128 -4 13 -23 58 -42 100 -20 42 -64 145 -98 227 -60 145 -110 263 -182
430 -48 112 -53 115 -182 115 -79 0 -112 -4 -128 -15z"></path>
    <path fill="#1a79bf" d="M3875 2455 c-25 -24 -25 -25 -25 -220 l0 -196 26 -24 c24 -23 35 -25
113 -25 137 0 131 -12 131 245 0 257 7 245 -133 245 -80 0 -90 -2 -112 -25z"></path>
    <path fill="#1a79bf" d="M3875 1875 l-25 -24 0 -381 0 -381 25 -24 c22 -23 32 -25 112 -25 64
0 95 4 111 16 l22 15 0 399 0 399 -22 15 c-16 12 -47 16 -111 16 -80 0 -90 -2
-112 -25z"></path>
  </g>
</svg>